<svg width="41" height="41" viewBox="0 0 41 41" fill="none" xmlns="http://www.w3.org/2000/svg">
                   <path d="M36.469 20.4455C36.4774 24.4689 34.959 28.3456 32.2201 31.2934C31.5944 31.9778 30.9081 32.6044 30.1697 33.1655C27.3823 35.2902 23.9741 36.4409 20.469 36.4409C16.9638 36.4409 13.5557 35.2902 10.7682 33.1655C10.0298 32.6044 9.34358 31.9778 8.71788 31.2934C6.95003 29.3807 5.67602 27.0654 5.00651 24.5486C4.337 22.0318 4.29223 19.3897 4.87611 16.8517C5.45998 14.3137 6.65483 11.9566 8.35686 9.98514C10.0589 8.01369 12.2166 6.48751 14.6427 5.53919C17.0687 4.59086 19.6896 4.24906 22.2778 4.54347C24.866 4.83789 27.3431 5.75962 29.494 7.22859C31.6449 8.69757 33.4046 10.6694 34.6201 12.9727C35.8357 15.276 36.4703 17.8412 36.469 20.4455Z" fill="white" stroke="black" stroke-width="2" stroke-miterlimit="10"></path> <path d="M9.34009 32.0146C10.6451 27.0889 15.1333 23.4585 20.4694 23.4585C25.8055 23.4585 30.2937 27.0889 31.5987 32.0146" stroke="black" stroke-width="2"></path> <circle cx="20.4651" cy="18.1439" r="5" stroke="black" stroke-width="2"></circle>
                  </svg>