<svg width="43" height="40" viewBox="0 0 43 40" fill="none" xmlns="http://www.w3.org/2000/svg">
                  <rect x="0.968994" width="41.1676" height="40" fill="#EB0A1E"></rect> <path fill-rule="evenodd" clip-rule="evenodd" d="M21.4181 11.1546C13.6513 11.1633 7.7132 15.0533 7.7132 20.238C7.7132 25.4286 13.5091 29.3089 21.4444 29.3089C29.3797 29.3089 35.1108 25.2522 35.1108 20.238C35.1108 15.2293 29.1724 11.1635 21.4181 11.1546ZM21.4181 11.1546L21.3925 11.1545H21.4444L21.4181 11.1546ZM29.9375 15.047C30.2357 16.1682 28.8872 17.5667 24.5694 18.0202C24.2842 15.173 23.4155 12.7667 21.9762 12.2501C23.8095 12.2913 25.625 12.6101 27.3572 13.195C28.8613 13.7367 29.7948 14.4548 29.9504 15.047H29.9375ZM21.4057 25.3027C22.443 25.3027 23.5581 23.8035 23.5581 20.1877C22.8709 20.2759 22.1577 20.2759 21.4057 20.2759C20.6536 20.2759 19.9405 20.2507 19.2403 20.1877C19.2403 23.8035 20.3684 25.3027 21.4057 25.3027ZM21.4054 18.1713H19.3697C19.7068 15.8028 20.5756 14.3917 21.4054 14.3917C22.2352 14.3917 23.091 15.765 23.4281 18.1713H21.4054ZM15.4411 13.195C13.924 13.7871 12.9904 14.4422 12.8478 15.047H12.8867C12.6015 16.1682 13.937 17.5667 18.2547 18.0202C18.527 15.173 19.3957 12.7667 20.848 12.2501C19.0062 12.2916 17.1822 12.6103 15.4411 13.195ZM9.73597 19.9106C9.72231 18.4703 10.2372 17.0723 11.1882 15.9673C11.3049 17.9957 14.1315 19.5075 18.151 20.0366V20.1878C18.151 25.076 19.4476 27.6713 20.8739 28.213C14.728 27.9988 9.73597 24.3201 9.73597 19.9106ZM24.738 20.1878C24.738 24.8744 23.4414 27.6587 21.9762 28.213H21.9892C28.1481 28.0114 33.1531 24.3201 33.1531 19.9106C33.1667 18.4703 32.6519 17.0723 31.7009 15.9673C31.5842 17.9957 28.7705 19.5075 24.738 20.0366V20.1878Z" fill="white"></path>
                 </svg>