<svg aria-hidden="true" class="tcom-icon tcom-social-icon tcom-icon-social-tiktok" width="40" height="40" viewBox="0 0 40 40" fill="none" xmlns="http://www.w3.org/2000/svg">
                  <rect x="0.5" y="0.5" width="39" height="39" rx="19.5" stroke="black"></rect> <path d="M24.8691 15.2071C24.007 14.6452 23.3853 13.7458 23.1911 12.6979C23.1493 12.4716 23.1261 12.2384 23.1261 12H20.3753L20.3709 23.0239C20.3248 24.2584 19.3086 25.2493 18.0632 25.2493C17.6759 25.2493 17.3115 25.1525 16.9905 24.9836C16.2544 24.5963 15.7507 23.8249 15.7507 22.9372C15.7507 21.6621 16.7882 20.6247 18.0628 20.6247C18.3008 20.6247 18.5292 20.664 18.7451 20.7314V17.9233C18.5216 17.8928 18.2944 17.8739 18.0628 17.8739C15.2712 17.8739 13 20.1451 13 22.9372C13 24.6501 13.8556 26.1659 15.1616 27.0825C15.9839 27.6601 16.9844 28 18.0632 28C20.8549 28 23.1261 25.7288 23.1261 22.9372V17.347C24.2049 18.1212 25.5269 18.5775 26.9532 18.5775V15.8267C26.185 15.8267 25.4695 15.5984 24.8691 15.2071Z" fill="black"></path>
                 </svg>