<svg width="41" height="41" viewBox="0 0 41 41" fill="none" xmlns="http://www.w3.org/2000/svg">
                   <path d="M36.469 20.5341C36.4774 24.5575 34.959 28.4342 32.2201 31.382C31.5944 32.0665 30.9081 32.693 30.1697 33.2541C27.3823 35.3788 23.9741 36.5295 20.469 36.5295C16.9638 36.5295 13.5557 35.3788 10.7682 33.2541C10.0298 32.693 9.34358 32.0665 8.71788 31.382C6.95003 29.4693 5.67602 27.154 5.00651 24.6372C4.337 22.1204 4.29223 19.4783 4.87611 16.9403C5.45998 14.4023 6.65483 12.0452 8.35686 10.0738C10.0589 8.10231 12.2166 6.57614 14.6427 5.62781C17.0687 4.67948 19.6896 4.33768 22.2778 4.63209C24.866 4.92651 27.3431 5.84824 29.494 7.31722C31.6449 8.78619 33.4046 10.758 34.6201 13.0613C35.8357 15.3647 36.4703 17.9299 36.469 20.5341Z" fill="#F6F6F6" stroke="black" stroke-width="2" stroke-miterlimit="10"></path> <path d="M14.3512 34.2811L10.5095 31.6863C11.915 27.5345 15.8445 24.5471 20.4694 24.5471C25.0844 24.5471 29.0069 27.5217 30.4202 31.6596L26.595 34.0449L20.1936 35.1799L14.3512 34.2811Z" fill="black" stroke="black" stroke-width="2"></path> <circle cx="20.4651" cy="18.2325" r="5" fill="black" stroke="black" stroke-width="2"></circle>
                  </svg>