<svg width="12" height="10" viewBox="0 0 12 10" fill="none" xmlns="http://www.w3.org/2000/svg"><path fill-rule="evenodd" clip-rule="evenodd" d="M5.5689 1.0448L10.1044 8.49988H1.0334L5.5689 1.0448ZM4.75621 0.456625C5.12774 -0.155136 6.00861 -0.148809 6.38013 0.454242L6.3816 0.456621L6.38159 0.456625L10.9962 8.04169L10.9965 8.04228C11.3809 8.67255 10.938 9.49988 10.1854 9.49988H0.952435C0.199794 9.49988 -0.243194 8.67243 0.141346 8.04215L0.141623 8.04169L4.75582 0.457279L4.75614 0.45674L4.75621 0.456625ZM5.56852 6.8202C5.19288 6.8202 4.89067 7.11176 4.89067 7.47415C4.89067 7.83655 5.19288 8.12811 5.56852 8.12811C5.94417 8.12811 6.24638 7.83655 6.24638 7.47415C6.24638 7.11176 5.94134 6.8202 5.56852 6.8202ZM6.01934 5.62088C5.96285 5.81979 5.81316 5.94785 5.56743 5.94785C5.32171 5.94785 5.17202 5.81979 5.11553 5.62088C5.05904 5.42469 4.92347 4.0623 4.88958 3.35658C4.86981 2.95876 5.19179 2.67811 5.56743 2.67811C5.94308 2.67811 6.26506 2.95876 6.24529 3.35658C6.21139 4.0623 6.07582 5.42469 6.01934 5.62088Z" fill="white"></path></svg>